<?xml version="1.0" encoding="UTF-8"?>
<svg width="128" height="128" viewBox="0 0 24 24" fill="none" xmlns="http://www.w3.org/2000/svg">
  <rect width="24" height="24" rx="4" fill="#0f172a"/>
  <path d="M3 13C3 12.4477 3.44772 12 4 12H20C20.5523 12 21 12.4477 21 13V15C21 15.5523 20.5523 16 20 16H19C19 16.5523 18.5523 17 18 17C17.4477 17 17 16.5523 17 16H7C7 16.5523 6.55228 17 6 17C5.44772 17 5 16.5523 5 16H4C3.44772 16 3 15.5523 3 15V13Z" fill="#FBBF24"/>
  <path d="M5 11L7 7H17L19 11" stroke="#FBBF24" stroke-width="0.8" stroke-linecap="round" stroke-linejoin="round"/>
  <circle cx="7.5" cy="17.5" r="1.5" fill="#111827"/>
  <circle cx="16.5" cy="17.5" r="1.5" fill="#111827"/>
</svg>
